<mxfile host="app.diagrams.net" modified="2022-07-28T19:00:34.058Z" agent="5.0 (Windows NT 10.0; Win64; x64) AppleWebKit/537.36 (KHTML, like Gecko) Chrome/103.0.5060.134 Safari/537.36 Edg/103.0.1264.71" etag="na_MOEl2ZCwo8eFtzvNJ" version="20.2.2" type="github">
  <diagram id="8ghX5KVDHITQwuVpAfDG" name="Page-1">
    <mxGraphModel dx="1002" dy="753" grid="1" gridSize="10" guides="1" tooltips="1" connect="1" arrows="1" fold="1" page="1" pageScale="1" pageWidth="850" pageHeight="1100" math="0" shadow="0">
      <root>
        <mxCell id="0" />
        <mxCell id="1" parent="0" />
        <mxCell id="NL-NaPGvrTg1I-spxOV0-5" style="edgeStyle=orthogonalEdgeStyle;rounded=0;orthogonalLoop=1;jettySize=auto;html=1;" edge="1" parent="1" source="NL-NaPGvrTg1I-spxOV0-1" target="NL-NaPGvrTg1I-spxOV0-2">
          <mxGeometry relative="1" as="geometry" />
        </mxCell>
        <mxCell id="NL-NaPGvrTg1I-spxOV0-6" style="edgeStyle=orthogonalEdgeStyle;rounded=0;orthogonalLoop=1;jettySize=auto;html=1;" edge="1" parent="1" source="NL-NaPGvrTg1I-spxOV0-1" target="NL-NaPGvrTg1I-spxOV0-3">
          <mxGeometry relative="1" as="geometry" />
        </mxCell>
        <mxCell id="NL-NaPGvrTg1I-spxOV0-1" value="Login" style="rounded=0;whiteSpace=wrap;html=1;" vertex="1" parent="1">
          <mxGeometry x="90" y="410" width="120" height="60" as="geometry" />
        </mxCell>
        <mxCell id="NL-NaPGvrTg1I-spxOV0-4" style="edgeStyle=orthogonalEdgeStyle;rounded=0;orthogonalLoop=1;jettySize=auto;html=1;" edge="1" parent="1" source="NL-NaPGvrTg1I-spxOV0-2" target="NL-NaPGvrTg1I-spxOV0-1">
          <mxGeometry relative="1" as="geometry" />
        </mxCell>
        <mxCell id="NL-NaPGvrTg1I-spxOV0-7" style="edgeStyle=orthogonalEdgeStyle;rounded=0;orthogonalLoop=1;jettySize=auto;html=1;entryX=0.5;entryY=1;entryDx=0;entryDy=0;" edge="1" parent="1" source="NL-NaPGvrTg1I-spxOV0-2" target="NL-NaPGvrTg1I-spxOV0-3">
          <mxGeometry relative="1" as="geometry" />
        </mxCell>
        <mxCell id="NL-NaPGvrTg1I-spxOV0-2" value="Create Profile" style="rounded=0;whiteSpace=wrap;html=1;" vertex="1" parent="1">
          <mxGeometry x="310" y="410" width="120" height="60" as="geometry" />
        </mxCell>
        <mxCell id="NL-NaPGvrTg1I-spxOV0-10" style="edgeStyle=orthogonalEdgeStyle;rounded=0;orthogonalLoop=1;jettySize=auto;html=1;entryX=0.5;entryY=1;entryDx=0;entryDy=0;" edge="1" parent="1" source="NL-NaPGvrTg1I-spxOV0-3" target="NL-NaPGvrTg1I-spxOV0-9">
          <mxGeometry relative="1" as="geometry" />
        </mxCell>
        <mxCell id="NL-NaPGvrTg1I-spxOV0-11" style="edgeStyle=orthogonalEdgeStyle;rounded=0;orthogonalLoop=1;jettySize=auto;html=1;entryX=0;entryY=0.5;entryDx=0;entryDy=0;" edge="1" parent="1" source="NL-NaPGvrTg1I-spxOV0-3" target="NL-NaPGvrTg1I-spxOV0-8">
          <mxGeometry relative="1" as="geometry" />
        </mxCell>
        <mxCell id="NL-NaPGvrTg1I-spxOV0-16" style="edgeStyle=orthogonalEdgeStyle;rounded=0;orthogonalLoop=1;jettySize=auto;html=1;entryX=1;entryY=0.5;entryDx=0;entryDy=0;" edge="1" parent="1" source="NL-NaPGvrTg1I-spxOV0-3" target="NL-NaPGvrTg1I-spxOV0-12">
          <mxGeometry relative="1" as="geometry" />
        </mxCell>
        <mxCell id="NL-NaPGvrTg1I-spxOV0-3" value="Home" style="rounded=0;whiteSpace=wrap;html=1;" vertex="1" parent="1">
          <mxGeometry x="190" y="260" width="120" height="60" as="geometry" />
        </mxCell>
        <mxCell id="NL-NaPGvrTg1I-spxOV0-8" value="MyPrograms" style="rounded=0;whiteSpace=wrap;html=1;" vertex="1" parent="1">
          <mxGeometry x="380" y="260" width="120" height="60" as="geometry" />
        </mxCell>
        <mxCell id="NL-NaPGvrTg1I-spxOV0-18" style="edgeStyle=orthogonalEdgeStyle;rounded=0;orthogonalLoop=1;jettySize=auto;html=1;entryX=0;entryY=0.5;entryDx=0;entryDy=0;" edge="1" parent="1" source="NL-NaPGvrTg1I-spxOV0-9" target="NL-NaPGvrTg1I-spxOV0-17">
          <mxGeometry relative="1" as="geometry" />
        </mxCell>
        <mxCell id="NL-NaPGvrTg1I-spxOV0-9" value="Search Programs" style="rounded=0;whiteSpace=wrap;html=1;" vertex="1" parent="1">
          <mxGeometry x="190" y="130" width="120" height="60" as="geometry" />
        </mxCell>
        <mxCell id="NL-NaPGvrTg1I-spxOV0-14" style="edgeStyle=orthogonalEdgeStyle;rounded=0;orthogonalLoop=1;jettySize=auto;html=1;entryX=0.5;entryY=1;entryDx=0;entryDy=0;" edge="1" parent="1" source="NL-NaPGvrTg1I-spxOV0-12" target="NL-NaPGvrTg1I-spxOV0-13">
          <mxGeometry relative="1" as="geometry" />
        </mxCell>
        <mxCell id="NL-NaPGvrTg1I-spxOV0-12" value="Profile" style="rounded=0;whiteSpace=wrap;html=1;" vertex="1" parent="1">
          <mxGeometry x="20" y="260" width="120" height="60" as="geometry" />
        </mxCell>
        <mxCell id="NL-NaPGvrTg1I-spxOV0-15" style="edgeStyle=orthogonalEdgeStyle;rounded=0;orthogonalLoop=1;jettySize=auto;html=1;" edge="1" parent="1" source="NL-NaPGvrTg1I-spxOV0-13" target="NL-NaPGvrTg1I-spxOV0-12">
          <mxGeometry relative="1" as="geometry" />
        </mxCell>
        <mxCell id="NL-NaPGvrTg1I-spxOV0-13" value="Edit Profile" style="rounded=0;whiteSpace=wrap;html=1;" vertex="1" parent="1">
          <mxGeometry x="20" y="160" width="120" height="60" as="geometry" />
        </mxCell>
        <mxCell id="NL-NaPGvrTg1I-spxOV0-20" style="edgeStyle=orthogonalEdgeStyle;rounded=0;orthogonalLoop=1;jettySize=auto;html=1;entryX=0;entryY=0.5;entryDx=0;entryDy=0;" edge="1" parent="1" source="NL-NaPGvrTg1I-spxOV0-17" target="NL-NaPGvrTg1I-spxOV0-19">
          <mxGeometry relative="1" as="geometry" />
        </mxCell>
        <mxCell id="NL-NaPGvrTg1I-spxOV0-17" value="Register Info" style="rounded=0;whiteSpace=wrap;html=1;" vertex="1" parent="1">
          <mxGeometry x="370" y="130" width="120" height="60" as="geometry" />
        </mxCell>
        <mxCell id="NL-NaPGvrTg1I-spxOV0-21" style="edgeStyle=orthogonalEdgeStyle;rounded=0;orthogonalLoop=1;jettySize=auto;html=1;entryX=0.383;entryY=0;entryDx=0;entryDy=0;entryPerimeter=0;" edge="1" parent="1" source="NL-NaPGvrTg1I-spxOV0-19" target="NL-NaPGvrTg1I-spxOV0-9">
          <mxGeometry relative="1" as="geometry">
            <Array as="points">
              <mxPoint x="610" y="110" />
              <mxPoint x="236" y="110" />
            </Array>
          </mxGeometry>
        </mxCell>
        <mxCell id="NL-NaPGvrTg1I-spxOV0-22" style="edgeStyle=orthogonalEdgeStyle;rounded=0;orthogonalLoop=1;jettySize=auto;html=1;entryX=1;entryY=0.75;entryDx=0;entryDy=0;" edge="1" parent="1" source="NL-NaPGvrTg1I-spxOV0-19" target="NL-NaPGvrTg1I-spxOV0-8">
          <mxGeometry relative="1" as="geometry">
            <Array as="points">
              <mxPoint x="610" y="305" />
            </Array>
          </mxGeometry>
        </mxCell>
        <mxCell id="NL-NaPGvrTg1I-spxOV0-19" value="Register Confirmation" style="rounded=0;whiteSpace=wrap;html=1;" vertex="1" parent="1">
          <mxGeometry x="550" y="130" width="120" height="60" as="geometry" />
        </mxCell>
      </root>
    </mxGraphModel>
  </diagram>
</mxfile>
